<svg width="32" height="22" viewBox="0 0 32 22" fill="none" xmlns="http://www.w3.org/2000/svg">
<path d="M0 0H31.17V21.3333H0V0ZM15.585 5.33333C16.9628 5.33333 18.2842 5.89524 19.2584 6.89543C20.2327 7.89562 20.78 9.25218 20.78 10.6667C20.78 12.0812 20.2327 13.4377 19.2584 14.4379C18.2842 15.4381 16.9628 16 15.585 16C14.2072 16 12.8858 15.4381 11.9116 14.4379C10.9373 13.4377 10.39 12.0812 10.39 10.6667C10.39 9.25218 10.9373 7.89562 11.9116 6.89543C12.8858 5.89524 14.2072 5.33333 15.585 5.33333ZM6.92667 3.55556C6.92667 4.49855 6.56178 5.40292 5.91228 6.06971C5.26278 6.73651 4.38187 7.11111 3.46333 7.11111V14.2222C4.38187 14.2222 5.26278 14.5968 5.91228 15.2636C6.56178 15.9304 6.92667 16.8348 6.92667 17.7778H24.2433C24.2433 16.8348 24.6082 15.9304 25.2577 15.2636C25.9072 14.5968 26.7881 14.2222 27.7067 14.2222V7.11111C26.7881 7.11111 25.9072 6.73651 25.2577 6.06971C24.6082 5.40292 24.2433 4.49855 24.2433 3.55556H6.92667Z" fill="#103D81"/>
</svg>
